<?xml version="1.0" standalone="no"?><!DOCTYPE svg PUBLIC "-//W3C//DTD SVG 1.1//EN" "http://www.w3.org/Graphics/SVG/1.1/DTD/svg11.dtd"><svg t="1655208469039" class="icon" viewBox="0 0 1024 1024" version="1.1" xmlns="http://www.w3.org/2000/svg" p-id="1018" xmlns:xlink="http://www.w3.org/1999/xlink" width="200" height="200"><defs><style type="text/css"></style></defs><path d="M 715.5 216.7 h 84 C 827.3 216.7 849.9 258.1 849.9 309.2 v 369.8 C 849.9 730 827.3 771.4 799.5 771.4 h -84 V 216.7 z" fill="#e1e5ea" p-id="1019"></path><path d="M 712.2 259.1 v 469.9 h 99.6 c 18.3 0 33.2 -15 33.2 -33.6 V 292.7 c 0 -18.5 -14.9 -33.6 -33.2 -33.6 h -99.6 z m 0 -67.1 h 99.6 C 866.8 192 911.4 237.1 911.4 292.7 v 402.8 C 911.4 751.1 866.8 796.2 811.8 796.2 h -99.6 c 0 83.4 -66.9 151 -149.3 151 H 164.7 C 82.2 947.2 15.4 879.6 15.4 796.2 V 192 C 15.4 108.6 82.2 41 164.7 41 h 398.2 c 82.5 0 149.3 67.6 149.3 151 z m -66.4 604.2 V 192 c 0 -46.3 -37.1 -83.9 -83 -83.9 H 164.7 c -45.8 0 -83 37.6 -83 83.9 v 604.2 c 0 46.3 37.1 83.9 83 83.9 h 398.2 c 45.8 0 83 -37.6 83 -83.9 z m -448 -335.6 h 232.3 C 448.5 460.5 463.4 475.5 463.4 494.1 s -14.9 33.6 -33.2 33.6 H 197.9 C 179.6 527.6 164.7 512.6 164.7 494.1 s 14.9 -33.6 33.2 -33.6 z m 0 -218.2 h 331.9 c 18.3 0 33.2 15 33.2 33.6 c 0 18.5 -14.9 33.6 -33.2 33.6 H 197.9 c -18.3 0 -33.2 -15 -33.2 -33.6 c 0 -18.5 14.9 -33.6 33.2 -33.6 z" fill="#333333" p-id="1020"></path></svg>