<?xml version="1.0" standalone="no"?><!DOCTYPE svg PUBLIC "-//W3C//DTD SVG 1.1//EN" "http://www.w3.org/Graphics/SVG/1.1/DTD/svg11.dtd"><svg t="1655208840741" class="icon" viewBox="0 0 1024 1024" version="1.1" xmlns="http://www.w3.org/2000/svg" p-id="8135" xmlns:xlink="http://www.w3.org/1999/xlink" width="200" height="200"><defs><style type="text/css"></style></defs><path d="M429.5 599.5c9.7-13.8 19-26.9 28.7-40.7-1.7-1.4-3.7-3.2-5.9-4.8-118.5-85-237-169.9-355.6-254.9-14.7-10.6-16.7-21.9-6.3-36.4 39.6-55.4 79.3-110.8 119-166.1 10.3-14.4 22-16.1 36.6-5.7 13.5 9.7 26.9 19.6 40.7 29.6 2.6-3.3 4.4-5.7 6.3-8.2 6.5-8.7 9.2-9.1 18.2-2.6 9.9 7 10.2 8.9 3.3 18.5-11.5 16.1-23 32.2-34.6 48.3-6.8 9.4-8.7 9.8-17.9 3.4-10-7-10.4-9.1-4.2-18.5 0.8-1.3 1.6-2.6 2.5-4.2-1.5-1.4-2.8-2.6-4.2-3.8-6.5-5.2-13-10.4-18.8-14.9-33.1 46.2-65.1 90.8-98 136.8 19.5 13.7 40.6 28.3 61.4 43.2 99.4 71.2 198.9 142.4 298.3 213.7 16.5 11.8 18.3 22.7 6.5 39.1-12.9 18.1-26.1 36-39.3 54.3 3.3 2.6 5.7 4.5 8.2 6.3 22.6 17.1 26.7 42.9 10.1 66.1-39.8 55.7-143.2 200.2-171.3 239.4-17.5 24.4-43.5 28.9-67.9 11.5-16.7-11.8-33.3-23.7-49.8-35.7-21.8-15.7-26.4-42.7-10.7-64.6 68.5-95.7 104.3-146.2 172.9-241.7 16.9-23.6 42.6-27.6 66.6-11 1.6 1.2 3.1 2.2 5.2 3.6z" p-id="8136"></path><path d="M950.8 476.8c3.1-4.2 4.6-8.6 4.7-12.7 0.7-1.6 1.4-3.2 2.1-4.9-5.1-5.8-8.3-11.3-13.1-14.8-55.2-40.1-110.6-80-166-119.9-30.5-22-61-43.9-91.4-65.9l-91.2-66.3C540.7 152.1 485.5 111.9 430.1 72c-4.8-3.4-11-4.8-18.1-7.8l-3.9 3.6c-4 1.3-7.6 4.2-10.7 8.4-38.3 53-76.6 106.1-114.8 159.2-6.2 8.4-12.4 16.8-18.6 25.1-2.3 3.1-4.2 6-5.7 8.7l-1.2 1.6c-8 11.1-5.3 22.3 6.7 31 57.5 41.4 114.9 82.8 172.4 124.2 28.4 20.5 56.8 40.9 85.2 61.3l84.9 61.8c57.3 41.7 114.5 83.4 171.9 125 11.9 8.7 23.5 7.7 31.5-3.3l1.2-1.6c2.1-2.3 4.2-5 6.5-8.2 6-8.5 12-17 18.1-25.5 38.5-52.8 76.9-105.7 115.3-158.7zM620 351.1c-5.2-4.7-10.1-6.5-15-5.2-8.4-0.5-15.2 4-21.8 13.9-3.1 4.7-6 9.4-8.9 14.2-1.8 0.8-3.8 1.2-6 0.8-4.9-0.8-12.7-7-18.5-13.6-3.9-4.5-6.9-9.3-7.5-12.6-1.8-11.3 6.3-19 2.9-30.9-1-3.5-2.1-6.9-3.3-10.4-3.3-9.5-7.3-18.9-10.8-28.2-4.4-11.7-12.4-18.6-22.2-22.5-4.9-1.9-10.2-3.1-15.8-3.7-3-0.3-5.7-0.2-8.2 0.3-10.4 2.2-16.6 11.3-21.7 21-1 1.8-1.9 3.7-2.9 5.5-2.4 4.8-4.8 9.6-7.6 14.1-5.8 9.6-12.1 11-20.6 5.4-5.4-3.6-8.3-7.4-8.7-11.6-0.3-3.5 1.1-7.2 4.3-11.4 8-10.5 30.9-27.6 19.5-40.8-1.3-1.5-2.9-2.9-5.1-4.2-6.3-4-13.2-4.8-19.1-2.8-6.8-5.6-13-13.5-18.8-19.5-6.1-6.3-12.4-13.5-17.1-21.1 0.5-2.9 1-5.7 1.6-8.6 3.6-18.8 0.1-24.2-19.1-27.7 1.2-2 2.2-3.9 3.4-5.6 9-12.5 18.1-25 27.2-37.5 4.6-6.3 9.3-10.1 14.4-11.4 5.4-0.8 11.4 1.5 18.8 6.8 80.1 57.7 160.3 115.4 240.4 173.1C753.6 335 833.5 393 913.3 451.1c7.4 5.3 11.4 10.3 12.3 15.7 1 5.6-1.5 11.8-7.1 19.5-14.9 20.5-29.7 41.1-45 62.3-3.8-4.4-6.4-8.6-10-11.6-5.4-4.5-11.1-9.1-17.5-12-12.1-5.6-19.6-2.5-26 9.2-2 3.7-4.3 6.6-6.8 8.8-8.7 7.5-20 6.4-29.3-3.9-4.2-4.7-5.7-9-4.1-13.6 0.7-2 2-4 3.9-6.2 4.9-5.5 3.7-0.5 8.8-5.9 3.7-4 5.5-8.7 5.6-13.4 0.1-6.2-2.8-12.5-8.6-17.3-2-1.6-3.8-2.8-5.6-3.5-16.1-6.7-25.2 20.4-32.7 31.3-3 4.3-6.1 6.8-9.5 7.6-4.1 1-8.6-0.6-13.7-4.6-7.9-6.3-8.5-12.7-1.3-21.2 3.5-4.1 7.3-7.8 11.1-11.6l4.4-4.4c7.6-8 14.3-16.7 13.2-27.2-0.3-2.5-1-5.1-2.2-7.9-2.3-5.1-5.1-9.8-8.5-13.8-6.8-8.1-15.9-13.5-28.3-14.1-9.9-0.5-20.1-1.3-30.2-1.5-1.5-2.5-2.8-5.2-4-8.1-3.4-8.4-8.2-15.8-17.3-17.2-9.3-1.4-14 6.6-18.5 13.1-4.8 7.1-9.3 14.4-13.9 21.6-8.1-3.4-16.4-8.9-18.7-13.3-1.1-2-1.3-4-1.1-6 3.6-4.3 7.2-8.5 10.7-12.9 7.4-9.3 9.6-17.2 6.5-25-0.3-5-3.6-9.1-9.6-12.6l-0.3-0.3z" p-id="8137"></path></svg>