<?xml version="1.0" standalone="no"?><!DOCTYPE svg PUBLIC "-//W3C//DTD SVG 1.1//EN" "http://www.w3.org/Graphics/SVG/1.1/DTD/svg11.dtd"><svg t="1655210987200" class="icon" viewBox="0 0 1024 1024" version="1.1" xmlns="http://www.w3.org/2000/svg" p-id="3022" xmlns:xlink="http://www.w3.org/1999/xlink" width="200" height="200"><defs><style type="text/css"></style></defs><path d="M 721.4 794 l -39 107.6 C 675.4 920.8 654.2 930.7 635.1 923.7 C 615.9 916.7 606 895.4 613 876.2 l 150.4 -415.1 C 766 451 772.8 442.5 782 437.7 C 791.2 432.8 802.1 432.1 811.8 435.8 c 11.8 4.3 20 14 23 25.3 l 150.3 415.1 C 992.2 895.4 982.3 916.7 963.2 923.7 C 944 930.7 922.8 920.8 915.8 901.6 l -38.9 -107.6 H 721.4 z m 26.8 -74.2 h 101.8 l -50.9 -140.6 L 748.2 719.8 z M 171.6 608.6 h 233.6 L 288.4 286.2 L 171.6 608.6 z m -26.9 74.2 L 67.7 895.6 C 60.5 914.5 39.5 924 20.6 917.1 C 1.7 910.2 -8.2 889.4 -1.7 870.3 L 250.8 173.1 C 256.5 157.4 271.9 147.5 288.4 148.8 C 305 147.5 320.4 157.4 326.1 173.1 l 252.5 697.1 C 585.5 889.5 575.6 910.8 556.5 917.8 C 537.3 924.8 516.1 914.8 509.2 895.6 L 432.1 682.8 H 144.8 z" fill="#000000" p-id="3023"></path></svg>