<?xml version="1.0" standalone="no"?><!DOCTYPE svg PUBLIC "-//W3C//DTD SVG 1.1//EN" "http://www.w3.org/Graphics/SVG/1.1/DTD/svg11.dtd"><svg t="1655208490253" class="icon" viewBox="0 0 1024 1024" version="1.1" xmlns="http://www.w3.org/2000/svg" p-id="1257" xmlns:xlink="http://www.w3.org/1999/xlink" width="200" height="200"><defs><style type="text/css"></style></defs><path d="M 850.9 881.5 l 87.2 -83.2 c 7.6 -7.2 7.6 -18.1 0 -25.3 l -53.1 -50.7 c -7.6 -7.2 -18.9 -7.2 -26.5 0 L 773.2 807.4 l -81.5 -77.8 c -7.6 -7.2 -18.9 -7.2 -26.5 0 l -53.1 50.7 c -7.6 7.2 -7.6 18.1 0 25.3 l 81.5 77.8 l -79.6 76 c -7.6 7.2 -7.6 18.1 0 25.3 l 53.1 50.7 c 7.6 7.2 18.9 7.2 26.5 0 l 79.6 -76 l 85.3 81.4 c 7.6 7.2 18.9 7.2 26.5 0 l 53.1 -50.7 c 7.6 -7.2 7.6 -18.1 0 -25.3 l -87.2 -83.2 z M 87.3 286.2 h 204.6 l -77.7 419.8 c -3.8 18.1 9.5 32.6 26.5 32.6 H 337.4 c 13.3 0 26.5 -9 28.4 -21.7 L 445.4 286.2 h 208.4 c 13.3 0 26.5 -9 28.4 -23.5 l 9.5 -54.3 c 3.8 -16.3 -9.5 -30.8 -28.4 -30.8 h -568.4 c -13.3 0 -24.6 9 -26.5 23.5 l -9.5 54.3 c -3.8 16.3 9.5 30.8 28.4 30.8 z M 526.9 838.1 c 0 -14.5 -13.3 -27.1 -28.4 -27.1 h -435.8 c -15.2 0 -28.4 12.7 -28.4 27.1 v 54.3 c 0 14.5 13.3 27.1 28.4 27.1 h 435.8 c 15.2 0 28.4 -12.7 28.4 -27.1 v -54.3 z" p-id="1258"></path></svg>